<mxfile host="app.diagrams.net" modified="2023-10-12T18:03:07.165Z" agent="Mozilla/5.0 (X11; Linux x86_64) AppleWebKit/537.36 (KHTML, like Gecko) Chrome/109.0.0.0 Safari/537.36" etag="15RT-q4vAlxFyhZdcqIo" version="22.0.4" type="github">
  <diagram name="Страница — 1" id="g3UVZSWfN8OI7AbEZ13V">
    <mxGraphModel dx="2049" dy="920" grid="0" gridSize="10" guides="1" tooltips="1" connect="1" arrows="1" fold="1" page="0" pageScale="1" pageWidth="2339" pageHeight="3300" math="0" shadow="0">
      <root>
        <mxCell id="0" />
        <mxCell id="1" parent="0" />
        <mxCell id="lNPVLpEEofSU8LIJ9ZFC-72" value="" style="rounded=0;whiteSpace=wrap;html=1;fillColor=none;" parent="1" vertex="1">
          <mxGeometry x="300" y="20" width="710" height="1100" as="geometry" />
        </mxCell>
        <mxCell id="lNPVLpEEofSU8LIJ9ZFC-8" style="rounded=0;orthogonalLoop=1;jettySize=auto;html=1;endArrow=none;endFill=0;" parent="1" source="lNPVLpEEofSU8LIJ9ZFC-2" target="lNPVLpEEofSU8LIJ9ZFC-7" edge="1">
          <mxGeometry relative="1" as="geometry" />
        </mxCell>
        <mxCell id="lNPVLpEEofSU8LIJ9ZFC-10" style="rounded=0;orthogonalLoop=1;jettySize=auto;html=1;endArrow=none;endFill=0;" parent="1" source="lNPVLpEEofSU8LIJ9ZFC-2" target="lNPVLpEEofSU8LIJ9ZFC-9" edge="1">
          <mxGeometry relative="1" as="geometry" />
        </mxCell>
        <mxCell id="lNPVLpEEofSU8LIJ9ZFC-29" style="rounded=0;orthogonalLoop=1;jettySize=auto;html=1;endArrow=none;endFill=0;" parent="1" source="lNPVLpEEofSU8LIJ9ZFC-2" target="lNPVLpEEofSU8LIJ9ZFC-28" edge="1">
          <mxGeometry relative="1" as="geometry" />
        </mxCell>
        <mxCell id="lNPVLpEEofSU8LIJ9ZFC-38" style="rounded=0;orthogonalLoop=1;jettySize=auto;html=1;endArrow=none;endFill=0;" parent="1" source="lNPVLpEEofSU8LIJ9ZFC-2" target="lNPVLpEEofSU8LIJ9ZFC-36" edge="1">
          <mxGeometry relative="1" as="geometry" />
        </mxCell>
        <mxCell id="lNPVLpEEofSU8LIJ9ZFC-39" style="rounded=0;orthogonalLoop=1;jettySize=auto;html=1;endArrow=none;endFill=0;" parent="1" source="lNPVLpEEofSU8LIJ9ZFC-2" target="lNPVLpEEofSU8LIJ9ZFC-37" edge="1">
          <mxGeometry relative="1" as="geometry" />
        </mxCell>
        <mxCell id="lNPVLpEEofSU8LIJ9ZFC-43" style="rounded=0;orthogonalLoop=1;jettySize=auto;html=1;endArrow=none;endFill=0;" parent="1" source="lNPVLpEEofSU8LIJ9ZFC-2" target="lNPVLpEEofSU8LIJ9ZFC-41" edge="1">
          <mxGeometry relative="1" as="geometry" />
        </mxCell>
        <mxCell id="lNPVLpEEofSU8LIJ9ZFC-46" style="rounded=0;orthogonalLoop=1;jettySize=auto;html=1;endArrow=none;endFill=0;" parent="1" source="lNPVLpEEofSU8LIJ9ZFC-2" target="lNPVLpEEofSU8LIJ9ZFC-40" edge="1">
          <mxGeometry relative="1" as="geometry" />
        </mxCell>
        <mxCell id="lNPVLpEEofSU8LIJ9ZFC-2" value="User" style="shape=umlActor;verticalLabelPosition=bottom;verticalAlign=top;html=1;outlineConnect=0;" parent="1" vertex="1">
          <mxGeometry x="160" y="390" width="30" height="60" as="geometry" />
        </mxCell>
        <mxCell id="lNPVLpEEofSU8LIJ9ZFC-26" style="rounded=0;orthogonalLoop=1;jettySize=auto;html=1;endArrow=none;endFill=0;" parent="1" source="lNPVLpEEofSU8LIJ9ZFC-5" target="lNPVLpEEofSU8LIJ9ZFC-22" edge="1">
          <mxGeometry relative="1" as="geometry" />
        </mxCell>
        <mxCell id="lNPVLpEEofSU8LIJ9ZFC-32" style="rounded=0;orthogonalLoop=1;jettySize=auto;html=1;startArrow=none;startFill=0;endArrow=none;endFill=0;" parent="1" source="lNPVLpEEofSU8LIJ9ZFC-5" target="lNPVLpEEofSU8LIJ9ZFC-31" edge="1">
          <mxGeometry relative="1" as="geometry" />
        </mxCell>
        <mxCell id="lNPVLpEEofSU8LIJ9ZFC-35" style="rounded=0;orthogonalLoop=1;jettySize=auto;html=1;endArrow=none;endFill=0;" parent="1" source="lNPVLpEEofSU8LIJ9ZFC-5" target="lNPVLpEEofSU8LIJ9ZFC-34" edge="1">
          <mxGeometry relative="1" as="geometry" />
        </mxCell>
        <mxCell id="lNPVLpEEofSU8LIJ9ZFC-61" style="rounded=0;orthogonalLoop=1;jettySize=auto;html=1;entryX=0;entryY=0;entryDx=0;entryDy=0;endArrow=none;endFill=0;" parent="1" source="lNPVLpEEofSU8LIJ9ZFC-5" target="lNPVLpEEofSU8LIJ9ZFC-62" edge="1">
          <mxGeometry relative="1" as="geometry">
            <mxPoint x="380" y="870" as="targetPoint" />
          </mxGeometry>
        </mxCell>
        <mxCell id="lNPVLpEEofSU8LIJ9ZFC-64" style="rounded=0;orthogonalLoop=1;jettySize=auto;html=1;entryX=0;entryY=0;entryDx=0;entryDy=0;endArrow=none;endFill=0;" parent="1" source="lNPVLpEEofSU8LIJ9ZFC-5" target="lNPVLpEEofSU8LIJ9ZFC-63" edge="1">
          <mxGeometry relative="1" as="geometry" />
        </mxCell>
        <mxCell id="Kb_688uzKFHoXc2K08xD-3" style="rounded=0;orthogonalLoop=1;jettySize=auto;html=1;endArrow=none;endFill=0;" edge="1" parent="1" source="lNPVLpEEofSU8LIJ9ZFC-5" target="Kb_688uzKFHoXc2K08xD-2">
          <mxGeometry relative="1" as="geometry" />
        </mxCell>
        <mxCell id="lNPVLpEEofSU8LIJ9ZFC-5" value="Admin" style="shape=umlActor;verticalLabelPosition=bottom;verticalAlign=top;html=1;outlineConnect=0;" parent="1" vertex="1">
          <mxGeometry x="160" y="770" width="30" height="60" as="geometry" />
        </mxCell>
        <mxCell id="lNPVLpEEofSU8LIJ9ZFC-47" style="rounded=0;orthogonalLoop=1;jettySize=auto;html=1;" parent="1" source="lNPVLpEEofSU8LIJ9ZFC-6" target="lNPVLpEEofSU8LIJ9ZFC-40" edge="1">
          <mxGeometry relative="1" as="geometry" />
        </mxCell>
        <mxCell id="lNPVLpEEofSU8LIJ9ZFC-48" style="rounded=0;orthogonalLoop=1;jettySize=auto;html=1;endArrow=none;endFill=0;" parent="1" source="lNPVLpEEofSU8LIJ9ZFC-6" target="lNPVLpEEofSU8LIJ9ZFC-41" edge="1">
          <mxGeometry relative="1" as="geometry">
            <Array as="points">
              <mxPoint x="980" y="140" />
            </Array>
          </mxGeometry>
        </mxCell>
        <mxCell id="lNPVLpEEofSU8LIJ9ZFC-6" value="Mechanic" style="shape=umlActor;verticalLabelPosition=bottom;verticalAlign=top;html=1;outlineConnect=0;" parent="1" vertex="1">
          <mxGeometry x="1070" y="380" width="30" height="60" as="geometry" />
        </mxCell>
        <mxCell id="lNPVLpEEofSU8LIJ9ZFC-16" value="include" style="rounded=0;orthogonalLoop=1;jettySize=auto;html=1;endArrow=classic;endFill=1;startArrow=none;startFill=0;dashed=1;" parent="1" source="lNPVLpEEofSU8LIJ9ZFC-36" target="lNPVLpEEofSU8LIJ9ZFC-11" edge="1">
          <mxGeometry relative="1" as="geometry" />
        </mxCell>
        <mxCell id="lNPVLpEEofSU8LIJ9ZFC-7" value="Забронировать&lt;br&gt;Машину" style="ellipse;whiteSpace=wrap;html=1;" parent="1" vertex="1">
          <mxGeometry x="350" y="430" width="120" height="80" as="geometry" />
        </mxCell>
        <mxCell id="lNPVLpEEofSU8LIJ9ZFC-19" value="include" style="rounded=0;orthogonalLoop=1;jettySize=auto;html=1;endArrow=classic;endFill=1;startArrow=none;startFill=0;dashed=1;" parent="1" source="lNPVLpEEofSU8LIJ9ZFC-9" target="lNPVLpEEofSU8LIJ9ZFC-12" edge="1">
          <mxGeometry relative="1" as="geometry" />
        </mxCell>
        <mxCell id="lNPVLpEEofSU8LIJ9ZFC-56" value="include" style="rounded=0;orthogonalLoop=1;jettySize=auto;html=1;dashed=1;" parent="1" source="lNPVLpEEofSU8LIJ9ZFC-12" target="lNPVLpEEofSU8LIJ9ZFC-50" edge="1">
          <mxGeometry relative="1" as="geometry" />
        </mxCell>
        <mxCell id="lNPVLpEEofSU8LIJ9ZFC-9" value="Закончить аренду" style="ellipse;whiteSpace=wrap;html=1;" parent="1" vertex="1">
          <mxGeometry x="340" y="560" width="120" height="80" as="geometry" />
        </mxCell>
        <mxCell id="lNPVLpEEofSU8LIJ9ZFC-17" value="include" style="rounded=0;orthogonalLoop=1;jettySize=auto;html=1;endArrow=none;endFill=0;dashed=1;startArrow=classic;startFill=1;" parent="1" source="lNPVLpEEofSU8LIJ9ZFC-11" target="lNPVLpEEofSU8LIJ9ZFC-13" edge="1">
          <mxGeometry relative="1" as="geometry" />
        </mxCell>
        <mxCell id="lNPVLpEEofSU8LIJ9ZFC-69" value="include" style="rounded=0;orthogonalLoop=1;jettySize=auto;html=1;dashed=1;" parent="1" source="lNPVLpEEofSU8LIJ9ZFC-11" target="lNPVLpEEofSU8LIJ9ZFC-49" edge="1">
          <mxGeometry relative="1" as="geometry" />
        </mxCell>
        <mxCell id="lNPVLpEEofSU8LIJ9ZFC-11" value="Начать сессию использования" style="ellipse;whiteSpace=wrap;html=1;" parent="1" vertex="1">
          <mxGeometry x="630" y="250" width="120" height="80" as="geometry" />
        </mxCell>
        <mxCell id="lNPVLpEEofSU8LIJ9ZFC-18" value="include" style="rounded=0;orthogonalLoop=1;jettySize=auto;html=1;exitX=1;exitY=0.5;exitDx=0;exitDy=0;endArrow=none;endFill=0;dashed=1;startArrow=classic;startFill=1;" parent="1" source="lNPVLpEEofSU8LIJ9ZFC-12" target="lNPVLpEEofSU8LIJ9ZFC-14" edge="1">
          <mxGeometry relative="1" as="geometry" />
        </mxCell>
        <mxCell id="lNPVLpEEofSU8LIJ9ZFC-12" value="Закончить сессию использования" style="ellipse;whiteSpace=wrap;html=1;" parent="1" vertex="1">
          <mxGeometry x="530" y="600" width="120" height="80" as="geometry" />
        </mxCell>
        <mxCell id="lNPVLpEEofSU8LIJ9ZFC-20" style="rounded=0;orthogonalLoop=1;jettySize=auto;html=1;endArrow=none;endFill=0;" parent="1" source="lNPVLpEEofSU8LIJ9ZFC-13" target="lNPVLpEEofSU8LIJ9ZFC-6" edge="1">
          <mxGeometry relative="1" as="geometry" />
        </mxCell>
        <mxCell id="lNPVLpEEofSU8LIJ9ZFC-13" value="Начать ТО" style="ellipse;whiteSpace=wrap;html=1;" parent="1" vertex="1">
          <mxGeometry x="840" y="260" width="120" height="80" as="geometry" />
        </mxCell>
        <mxCell id="lNPVLpEEofSU8LIJ9ZFC-21" style="rounded=0;orthogonalLoop=1;jettySize=auto;html=1;endArrow=none;endFill=0;" parent="1" source="lNPVLpEEofSU8LIJ9ZFC-14" target="lNPVLpEEofSU8LIJ9ZFC-6" edge="1">
          <mxGeometry relative="1" as="geometry" />
        </mxCell>
        <mxCell id="lNPVLpEEofSU8LIJ9ZFC-76" value="extend" style="rounded=0;orthogonalLoop=1;jettySize=auto;html=1;endArrow=none;endFill=0;startArrow=classic;startFill=1;dashed=1;" parent="1" source="lNPVLpEEofSU8LIJ9ZFC-14" target="lNPVLpEEofSU8LIJ9ZFC-75" edge="1">
          <mxGeometry relative="1" as="geometry" />
        </mxCell>
        <mxCell id="lNPVLpEEofSU8LIJ9ZFC-14" value="Сдать автомобиль" style="ellipse;whiteSpace=wrap;html=1;" parent="1" vertex="1">
          <mxGeometry x="790" y="630" width="120" height="80" as="geometry" />
        </mxCell>
        <mxCell id="lNPVLpEEofSU8LIJ9ZFC-22" value="Просмотр карты автомобилей" style="ellipse;whiteSpace=wrap;html=1;" parent="1" vertex="1">
          <mxGeometry x="610" y="750" width="120" height="80" as="geometry" />
        </mxCell>
        <mxCell id="lNPVLpEEofSU8LIJ9ZFC-24" style="rounded=0;orthogonalLoop=1;jettySize=auto;html=1;endArrow=block;endFill=0;endSize=10;" parent="1" source="lNPVLpEEofSU8LIJ9ZFC-23" target="lNPVLpEEofSU8LIJ9ZFC-22" edge="1">
          <mxGeometry relative="1" as="geometry" />
        </mxCell>
        <mxCell id="lNPVLpEEofSU8LIJ9ZFC-25" style="rounded=0;orthogonalLoop=1;jettySize=auto;html=1;endArrow=none;endFill=0;" parent="1" source="lNPVLpEEofSU8LIJ9ZFC-23" target="lNPVLpEEofSU8LIJ9ZFC-6" edge="1">
          <mxGeometry relative="1" as="geometry" />
        </mxCell>
        <mxCell id="lNPVLpEEofSU8LIJ9ZFC-23" value="Просмотр карты авто в сервисном режиме" style="ellipse;whiteSpace=wrap;html=1;" parent="1" vertex="1">
          <mxGeometry x="840" y="750" width="120" height="80" as="geometry" />
        </mxCell>
        <mxCell id="lNPVLpEEofSU8LIJ9ZFC-27" style="rounded=0;orthogonalLoop=1;jettySize=auto;html=1;endArrow=block;endFill=0;endSize=10;" parent="1" source="lNPVLpEEofSU8LIJ9ZFC-28" target="lNPVLpEEofSU8LIJ9ZFC-22" edge="1">
          <mxGeometry relative="1" as="geometry">
            <mxPoint x="330" y="713" as="targetPoint" />
          </mxGeometry>
        </mxCell>
        <mxCell id="lNPVLpEEofSU8LIJ9ZFC-28" value="Просмотр карты доступных автомобилей" style="ellipse;whiteSpace=wrap;html=1;" parent="1" vertex="1">
          <mxGeometry x="330" y="670" width="120" height="80" as="geometry" />
        </mxCell>
        <mxCell id="lNPVLpEEofSU8LIJ9ZFC-31" value="Перевести автомобиль в сервисный режим" style="ellipse;whiteSpace=wrap;html=1;" parent="1" vertex="1">
          <mxGeometry x="460" y="810" width="120" height="80" as="geometry" />
        </mxCell>
        <mxCell id="lNPVLpEEofSU8LIJ9ZFC-34" value="Запустить автомобиль на линию" style="ellipse;whiteSpace=wrap;html=1;" parent="1" vertex="1">
          <mxGeometry x="520" y="900" width="120" height="80" as="geometry" />
        </mxCell>
        <mxCell id="lNPVLpEEofSU8LIJ9ZFC-36" value="Начать осмотр" style="ellipse;whiteSpace=wrap;html=1;" parent="1" vertex="1">
          <mxGeometry x="440" y="220" width="120" height="80" as="geometry" />
        </mxCell>
        <mxCell id="lNPVLpEEofSU8LIJ9ZFC-37" value="Начать аренду" style="ellipse;whiteSpace=wrap;html=1;" parent="1" vertex="1">
          <mxGeometry x="380" y="50" width="120" height="80" as="geometry" />
        </mxCell>
        <mxCell id="lNPVLpEEofSU8LIJ9ZFC-54" value="include" style="rounded=0;orthogonalLoop=1;jettySize=auto;html=1;dashed=1;" parent="1" source="lNPVLpEEofSU8LIJ9ZFC-40" target="lNPVLpEEofSU8LIJ9ZFC-50" edge="1">
          <mxGeometry relative="1" as="geometry" />
        </mxCell>
        <mxCell id="lNPVLpEEofSU8LIJ9ZFC-40" value="Перевести в режим ожидания" style="ellipse;whiteSpace=wrap;html=1;" parent="1" vertex="1">
          <mxGeometry x="430" y="320" width="120" height="80" as="geometry" />
        </mxCell>
        <mxCell id="lNPVLpEEofSU8LIJ9ZFC-53" value="include" style="rounded=0;orthogonalLoop=1;jettySize=auto;html=1;dashed=1;" parent="1" source="lNPVLpEEofSU8LIJ9ZFC-41" target="lNPVLpEEofSU8LIJ9ZFC-49" edge="1">
          <mxGeometry relative="1" as="geometry" />
        </mxCell>
        <mxCell id="lNPVLpEEofSU8LIJ9ZFC-41" value="Выйти из режима ожидания" style="ellipse;whiteSpace=wrap;html=1;" parent="1" vertex="1">
          <mxGeometry x="490" y="100" width="120" height="80" as="geometry" />
        </mxCell>
        <mxCell id="lNPVLpEEofSU8LIJ9ZFC-49" value="Открыть замок" style="ellipse;whiteSpace=wrap;html=1;" parent="1" vertex="1">
          <mxGeometry x="770" y="170" width="120" height="80" as="geometry" />
        </mxCell>
        <mxCell id="lNPVLpEEofSU8LIJ9ZFC-50" value="Закрыть замок" style="ellipse;whiteSpace=wrap;html=1;" parent="1" vertex="1">
          <mxGeometry x="580" y="420" width="120" height="80" as="geometry" />
        </mxCell>
        <mxCell id="lNPVLpEEofSU8LIJ9ZFC-60" style="rounded=0;orthogonalLoop=1;jettySize=auto;html=1;endArrow=none;endFill=0;" parent="1" source="lNPVLpEEofSU8LIJ9ZFC-58" target="lNPVLpEEofSU8LIJ9ZFC-50" edge="1">
          <mxGeometry relative="1" as="geometry" />
        </mxCell>
        <mxCell id="lNPVLpEEofSU8LIJ9ZFC-58" value="1" style="ellipse;whiteSpace=wrap;html=1;aspect=fixed;" parent="1" vertex="1">
          <mxGeometry x="490" y="445" width="30" height="30" as="geometry" />
        </mxCell>
        <mxCell id="lNPVLpEEofSU8LIJ9ZFC-62" value="1" style="ellipse;whiteSpace=wrap;html=1;aspect=fixed;" parent="1" vertex="1">
          <mxGeometry x="330" y="1070" width="30" height="30" as="geometry" />
        </mxCell>
        <mxCell id="lNPVLpEEofSU8LIJ9ZFC-63" value="2" style="ellipse;whiteSpace=wrap;html=1;aspect=fixed;" parent="1" vertex="1">
          <mxGeometry x="375" y="1040" width="30" height="30" as="geometry" />
        </mxCell>
        <mxCell id="lNPVLpEEofSU8LIJ9ZFC-66" style="rounded=0;orthogonalLoop=1;jettySize=auto;html=1;endArrow=none;endFill=0;" parent="1" source="lNPVLpEEofSU8LIJ9ZFC-65" target="lNPVLpEEofSU8LIJ9ZFC-49" edge="1">
          <mxGeometry relative="1" as="geometry" />
        </mxCell>
        <mxCell id="lNPVLpEEofSU8LIJ9ZFC-65" value="2" style="ellipse;whiteSpace=wrap;html=1;aspect=fixed;" parent="1" vertex="1">
          <mxGeometry x="920" y="175" width="30" height="30" as="geometry" />
        </mxCell>
        <mxCell id="lNPVLpEEofSU8LIJ9ZFC-75" value="Запрос на запуск автомобиля на линию" style="ellipse;whiteSpace=wrap;html=1;" parent="1" vertex="1">
          <mxGeometry x="660" y="510" width="120" height="80" as="geometry" />
        </mxCell>
        <mxCell id="lNPVLpEEofSU8LIJ9ZFC-77" value="Если неисправность устранена" style="shape=note;whiteSpace=wrap;html=1;backgroundOutline=1;darkOpacity=0.05;size=16;" parent="1" vertex="1">
          <mxGeometry x="760" y="450" width="210" height="40" as="geometry" />
        </mxCell>
        <mxCell id="lNPVLpEEofSU8LIJ9ZFC-79" value="" style="endArrow=none;html=1;rounded=0;" parent="1" edge="1">
          <mxGeometry width="50" height="50" relative="1" as="geometry">
            <mxPoint x="811" y="594" as="sourcePoint" />
            <mxPoint x="861" y="497" as="targetPoint" />
          </mxGeometry>
        </mxCell>
        <mxCell id="Kb_688uzKFHoXc2K08xD-2" value="Просмотр автомобилей, готовых к выходу на линию" style="ellipse;whiteSpace=wrap;html=1;" vertex="1" parent="1">
          <mxGeometry x="380" y="940" width="120" height="80" as="geometry" />
        </mxCell>
      </root>
    </mxGraphModel>
  </diagram>
</mxfile>
